<svg width="33px" height="31px" viewBox="0 0 33 31" version="1.1" 
    xmlns="http://www.w3.org/2000/svg" 
    xmlns:xlink="http://www.w3.org/1999/xlink">
    <defs>
        <filter x="-56.5%" y="-48.0%" width="213.0%" height="196.0%" filterUnits="objectBoundingBox" id="filter-1">
            <feOffset dx="0" dy="2" in="SourceAlpha" result="shadowOffsetOuter1"></feOffset>
            <feGaussianBlur stdDeviation="2" in="shadowOffsetOuter1" result="shadowBlurOuter1"></feGaussianBlur>
            <feColorMatrix values="0 0 0 0 0   0 0 0 0 0   0 0 0 0 0  0 0 0 0.5 0" type="matrix" in="shadowBlurOuter1" result="shadowMatrixOuter1"></feColorMatrix>
            <feMerge>
                <feMergeNode in="shadowMatrixOuter1"></feMergeNode>
                <feMergeNode in="SourceGraphic"></feMergeNode>
            </feMerge>
        </filter>
    </defs>
    <g id="Page-1" stroke="none" stroke-width="1" fill="none" fill-rule="evenodd">
        <g id="logo" filter="url(#filter-1)" transform="translate(16.500000, 14.500000) scale(-1, 1) translate(-16.500000, -14.500000) translate(5.000000, 2.000000)" fill="#4A90E2">
            <g id="b-link">
                <path d="M22.735,23.171 C23.018,23.494 22.788,24 22.359,24 L16.452,24 C16.167,24 15.896,23.879 15.707,23.667 L6.293,13.141 L6.293,23.501 C6.293,23.777 6.069,24.001 5.793,24.001 L0.5,24.001 C0.224,24.001 -8.8817842e-16,23.777 -8.8817842e-16,23.501 L-8.8817842e-16,0.501 C-8.8817842e-16,0.225 0.224,0.001 0.5,0.001 L5.793,0.001 C6.069,0.001 6.293,0.225 6.293,0.501 L6.293,10.316 L15.434,0.326 C15.624,0.119 15.891,0.001 16.172,0.001 L21.934,0.001 C22.371,0.001 22.598,0.522 22.3,0.842 L12.449,11.405 L22.736,23.172 L22.735,23.171 Z" id="b" transform="translate(11.429845, 12.001000) rotate(90.000000) translate(-11.429845, -12.001000) "></path>
            </g>
        </g>
    </g>
</svg>